<svg xmlns="http://www.w3.org/2000/svg" viewBox="0 0 500 500"><g id="freepik--background-simple--inject-19"><path d="M392.46,320.68c19-22.29,35.2-52.18,32.56-86.64-3-39-29.21-72.35-57.13-93.52-42.71-32.37-92.29-45.36-139.76-45.13-38.55.18-77.58,9.38-106.76,37.11S74.89,209.31,85.73,257c7.39,32.51,26.67,60.72,48.94,81.48,33.43,31.16,70.73,53.65,110.39,53.23a191,191,0,0,0,101.3-30.61A208.54,208.54,0,0,0,392.46,320.68Z" style="fill:#4875E5"></path><path d="M392.46,320.68c19-22.29,35.2-52.18,32.56-86.64-3-39-29.21-72.35-57.13-93.52-42.71-32.37-92.29-45.36-139.76-45.13-38.55.18-77.58,9.38-106.76,37.11S74.89,209.31,85.73,257c7.39,32.51,26.67,60.72,48.94,81.48,33.43,31.16,70.73,53.65,110.39,53.23a191,191,0,0,0,101.3-30.61A208.54,208.54,0,0,0,392.46,320.68Z" style="fill:#fff;opacity:0.9"></path></g><g id="freepik--Shadow--inject-19"><ellipse id="freepik--path--inject-19" cx="250" cy="415.69" rx="193.89" ry="11.32" style="fill:#f5f5f5"></ellipse></g><g id="freepik--Device--inject-19"><path d="M316.76,290.51l-14-31.09H269.94l5,29.09a2.63,2.63,0,0,1-2.14,3l-.42,0H258a1.39,1.39,0,0,0-1.39,1.39h0v1.54a1.39,1.39,0,0,0,1.39,1.39h57.73a1.51,1.51,0,0,0,1.51-1.51v-1.6A5.49,5.49,0,0,0,316.76,290.51Zm-15.18-3.84H285.83a2.1,2.1,0,0,1-2.07-1.75l-2.38-13.73a2.1,2.1,0,0,1,1.72-2.43l.36,0h11.91a2.1,2.1,0,0,1,1.92,1.23l6.21,13.73a2.13,2.13,0,0,1-1.92,3Z" style="fill:#263238"></path><path d="M316.76,290.51l-14-31.09H269.94l5,29.09a2.63,2.63,0,0,1-2.14,3l-.42,0H258a1.39,1.39,0,0,0-1.39,1.39h0v1.54a1.39,1.39,0,0,0,1.39,1.39h57.73a1.51,1.51,0,0,0,1.51-1.51v-1.6A5.49,5.49,0,0,0,316.76,290.51Zm-15.18-3.84H285.83a2.1,2.1,0,0,1-2.07-1.75l-2.38-13.73a2.1,2.1,0,0,1,1.72-2.43l.36,0h11.91a2.1,2.1,0,0,1,1.92,1.23l6.21,13.73a2.13,2.13,0,0,1-1.92,3Z" style="fill:#fff;opacity:0.5"></path><path d="M301.58,286.67H285.83a2.1,2.1,0,0,1-2.07-1.75l-2.38-13.73a2.1,2.1,0,0,1,1.72-2.43l.36,0h11.91a2.1,2.1,0,0,1,1.92,1.23l6.21,13.73a2.13,2.13,0,0,1-1.92,3Z" style="fill:#fff;isolation:isolate;opacity:0.2"></path><path d="M285.31,268.7h-1.85a2.1,2.1,0,0,0-2.11,2.1,2.19,2.19,0,0,0,0,.36l2.38,13.73a2.08,2.08,0,0,0,2.07,1.74h1.86a2.08,2.08,0,0,1-2.07-1.74l-2.38-13.73a2.09,2.09,0,0,1,1.72-2.43A2.07,2.07,0,0,1,285.31,268.7Z" style="fill:#263238"></path><path d="M318.62,290.51l-14-31.07h-1.85l14,31.07a5.58,5.58,0,0,1,.5,2.31v1.61a1.52,1.52,0,0,1-1.51,1.51h1.86a1.52,1.52,0,0,0,1.51-1.51v-1.61A5.58,5.58,0,0,0,318.62,290.51Z" style="fill:#263238"></path><polygon points="302.72 259.42 269.93 259.42 271.22 266.84 306.08 266.84 302.72 259.42" style="isolation:isolate;opacity:0.2"></polygon><path d="M349.76,262.68H209.87a4.62,4.62,0,0,1-4.69-4.52,4.16,4.16,0,0,1,0-.61l8.84-101.09a5.68,5.68,0,0,1,5.56-5.12H359.5a4.59,4.59,0,0,1,4.69,4.52,4,4,0,0,1,0,.6l-8.85,101.1A5.69,5.69,0,0,1,349.76,262.68Z" style="fill:#263238"></path><path d="M206.16,246.63l-1,10.93a4.59,4.59,0,0,0,4.06,5.09,3,3,0,0,0,.6,0h139.9a5.68,5.68,0,0,0,5.56-5.12l1-10.93Z" style="fill:#4875E5"></path><path d="M206.16,246.63l-1,10.93a4.59,4.59,0,0,0,4.06,5.09,3,3,0,0,0,.6,0h139.9a5.68,5.68,0,0,0,5.56-5.12l1-10.93Z" style="fill:#fff;isolation:isolate;opacity:0.7000000000000001"></path><path d="M351.34,243.54H211.63a2.49,2.49,0,0,1-2.54-2.45,1.69,1.69,0,0,1,0-.32l7.31-83.55a3.08,3.08,0,0,1,3-2.77H359.14a2.49,2.49,0,0,1,2.54,2.45c0,.1,0,.21,0,.32l-7.31,83.55A3.09,3.09,0,0,1,351.34,243.54Z" style="fill:#4875E5"></path><path d="M351.34,243.54H211.63a2.49,2.49,0,0,1-2.54-2.45,1.69,1.69,0,0,1,0-.32l7.31-83.55a3.08,3.08,0,0,1,3-2.77H359.14a2.49,2.49,0,0,1,2.54,2.45c0,.1,0,.21,0,.32l-7.31,83.55A3.09,3.09,0,0,1,351.34,243.54Z" style="fill:#4875E5;isolation:isolate;opacity:0.8"></path><path d="M362.6,151.36h-3.1a4.59,4.59,0,0,1,4.69,4.52,4,4,0,0,1,0,.6l-8.85,101.08a5.68,5.68,0,0,1-5.56,5.12h3.1a5.67,5.67,0,0,0,5.55-5.12l8.85-101.09a4.6,4.6,0,0,0-4.07-5.08Z" style="fill:#4875E5"></path><path d="M362.6,151.36h-3.1a4.59,4.59,0,0,1,4.69,4.52,4,4,0,0,1,0,.6l-8.85,101.08a5.68,5.68,0,0,1-5.56,5.12h3.1a5.67,5.67,0,0,0,5.55-5.12l8.85-101.09a4.6,4.6,0,0,0-4.07-5.08Z" style="fill:#fff;isolation:isolate;opacity:0.2"></path><polygon points="246.22 242.92 310.32 242.92 317.68 158.77 253.59 158.77 246.22 242.92" style="fill:#4875E5"></polygon><polygon points="246.22 242.92 310.32 242.92 317.68 158.77 253.59 158.77 246.22 242.92" style="fill:#fff;opacity:0.7000000000000001"></polygon><path d="M269.36,169.62h32.29a.85.85,0,0,0,.83-.76h0a.69.69,0,0,0-.69-.75h-32.3a.85.85,0,0,0-.83.75h0A.69.69,0,0,0,269.36,169.62Z" style="fill:#263238"></path><path d="M258.5,210.79h39.55a.85.85,0,0,0,.83-.76h0a.69.69,0,0,0-.7-.75H258.63a.83.83,0,0,0-.82.75h0A.68.68,0,0,0,258.5,210.79Z" style="fill:#263238"></path><path d="M258.11,215.19h45.17a.83.83,0,0,0,.82-.76h0a.68.68,0,0,0-.69-.75H258.25a.85.85,0,0,0-.83.75h0A.69.69,0,0,0,258.11,215.19Z" style="fill:#263238"></path><path d="M257.73,219.59H302.9a.85.85,0,0,0,.82-.76h0a.68.68,0,0,0-.69-.76H257.86a.84.84,0,0,0-.82.76h0A.68.68,0,0,0,257.73,219.59Z" style="fill:#263238"></path><path d="M257.34,224h45.17a.83.83,0,0,0,.82-.76h0a.68.68,0,0,0-.69-.76H257.48a.85.85,0,0,0-.83.76h0A.69.69,0,0,0,257.34,224Z" style="fill:#263238"></path><path d="M257,228.39h39.55a.85.85,0,0,0,.83-.76h0a.69.69,0,0,0-.69-.76H257.09a.84.84,0,0,0-.82.76h0A.68.68,0,0,0,257,228.39Z" style="fill:#263238"></path><path d="M256.57,232.78h45.17a.84.84,0,0,0,.83-.75h0a.69.69,0,0,0-.7-.76H256.71a.85.85,0,0,0-.83.76h0A.68.68,0,0,0,256.57,232.78Z" style="fill:#263238"></path><path d="M256.19,237.18h45.17a.84.84,0,0,0,.82-.75h0a.68.68,0,0,0-.69-.76H256.32a.84.84,0,0,0-.82.76h0A.68.68,0,0,0,256.19,237.18Z" style="fill:#263238"></path><path d="M272.7,174.65h24.73a.83.83,0,0,0,.82-.76h0a.68.68,0,0,0-.69-.76H272.83a.85.85,0,0,0-.82.76h0A.68.68,0,0,0,272.7,174.65Z" style="fill:#263238"></path><path d="M276.3,179.67H293a.85.85,0,0,0,.83-.75h0a.69.69,0,0,0-.7-.76H276.43a.83.83,0,0,0-.82.76h0A.68.68,0,0,0,276.3,179.67Z" style="fill:#263238"></path><g style="opacity:0.4"><path d="M269.36,169.62h32.29a.85.85,0,0,0,.83-.76h0a.69.69,0,0,0-.69-.75h-32.3a.85.85,0,0,0-.83.75h0A.69.69,0,0,0,269.36,169.62Z" style="fill:#fff"></path><path d="M258.5,210.79h39.55a.85.85,0,0,0,.83-.76h0a.69.69,0,0,0-.7-.75H258.63a.83.83,0,0,0-.82.75h0A.68.68,0,0,0,258.5,210.79Z" style="fill:#fff"></path><path d="M258.11,215.19h45.17a.83.83,0,0,0,.82-.76h0a.68.68,0,0,0-.69-.75H258.25a.85.85,0,0,0-.83.75h0A.69.69,0,0,0,258.11,215.19Z" style="fill:#fff"></path><path d="M257.73,219.59H302.9a.85.85,0,0,0,.82-.76h0a.68.68,0,0,0-.69-.76H257.86a.84.84,0,0,0-.82.76h0A.68.68,0,0,0,257.73,219.59Z" style="fill:#fff"></path><path d="M257.34,224h45.17a.83.83,0,0,0,.82-.76h0a.68.68,0,0,0-.69-.76H257.48a.85.85,0,0,0-.83.76h0A.69.69,0,0,0,257.34,224Z" style="fill:#fff"></path><path d="M257,228.39h39.55a.85.85,0,0,0,.83-.76h0a.69.69,0,0,0-.69-.76H257.09a.84.84,0,0,0-.82.76h0A.68.68,0,0,0,257,228.39Z" style="fill:#fff"></path><path d="M256.57,232.78h45.17a.84.84,0,0,0,.83-.75h0a.69.69,0,0,0-.7-.76H256.71a.85.85,0,0,0-.83.76h0A.68.68,0,0,0,256.57,232.78Z" style="fill:#fff"></path><path d="M256.19,237.18h45.17a.84.84,0,0,0,.82-.75h0a.68.68,0,0,0-.69-.76H256.32a.84.84,0,0,0-.82.76h0A.68.68,0,0,0,256.19,237.18Z" style="fill:#fff"></path><path d="M272.7,174.65h24.73a.83.83,0,0,0,.82-.76h0a.68.68,0,0,0-.69-.76H272.83a.85.85,0,0,0-.82.76h0A.68.68,0,0,0,272.7,174.65Z" style="fill:#fff"></path><path d="M276.3,179.67H293a.85.85,0,0,0,.83-.75h0a.69.69,0,0,0-.7-.76H276.43a.83.83,0,0,0-.82.76h0A.68.68,0,0,0,276.3,179.67Z" style="fill:#fff"></path></g><polygon points="258.39 203.43 305.07 203.43 306.63 185.52 259.95 185.52 258.39 203.43" style="fill:#fff;opacity:0.5"></polygon></g><g id="freepik--graduation-cap--inject-19"><rect x="207.18" y="257.16" width="40.94" height="38.61" transform="translate(455.3 552.93) rotate(180)" style="fill:#263238"></rect><rect x="167.25" y="257.16" width="40.94" height="38.61" transform="translate(375.43 552.93) rotate(180)" style="fill:#263238"></rect><rect x="206.78" y="255.73" width="41.34" height="5.36" transform="translate(454.89 516.83) rotate(180)" style="fill:#263238"></rect><rect x="206.78" y="251.8" width="73.93" height="6.23" transform="translate(487.49 509.84) rotate(180)" style="fill:#263238"></rect><rect x="167.25" y="257.16" width="40.94" height="38.61" transform="translate(375.43 552.93) rotate(180)" style="opacity:0.2"></rect><rect x="206.78" y="255.73" width="41.34" height="5.36" transform="translate(454.89 516.83) rotate(180)" style="opacity:0.2"></rect><rect x="206.78" y="251.8" width="73.93" height="6.23" transform="translate(487.49 509.84) rotate(180)" style="opacity:0.2"></rect><rect x="134.66" y="251.8" width="73.93" height="6.23" transform="translate(343.24 509.84) rotate(180)" style="fill:#263238"></rect><path d="M134.66,317.6h0a1,1,0,0,0,1-1V256a3.23,3.23,0,0,1,3.23-3.24h68.7a1,1,0,0,0,1-1h0a1,1,0,0,0-1-1h-68.7a5.24,5.24,0,0,0-5.23,5.24V316.6A1,1,0,0,0,134.66,317.6Z" style="fill:#4875E5"></path><path d="M134.44,320.2c3.68,0,6.66,4.8,6.66,10.72v7.62h-3.3c-.36,0-2.38-.4-2.38-7.69,0,0-1.12,7.67.74,7.69h-2.81s-1.68-.32-1.68-4.38V328s-2.69,10.5,0,10.5h-3.9v-7.62C127.77,325,130.76,320.2,134.44,320.2Z" style="fill:#4875E5"></path><path d="M132.2,318.6h4.48a1,1,0,0,0,1-1h0a1,1,0,0,0-1-1H132.2a1,1,0,0,0-1,1h0A1,1,0,0,0,132.2,318.6Z" style="fill:#4875E5"></path><path d="M132.2,320.6h4.48a1,1,0,0,0,1-1h0a1,1,0,0,0-1-1H132.2a1,1,0,0,0-1,1h0A1,1,0,0,0,132.2,320.6Z" style="fill:#4875E5"></path></g><g id="freepik--Books--inject-19"><path d="M344.5,374.88H162.28v38H344.56A149.17,149.17,0,0,1,344.5,374.88Z" style="fill:#4875E5"></path><path d="M344.5,374.88H162.28v38H344.56A149.17,149.17,0,0,1,344.5,374.88Z" style="fill:#fff;opacity:0.7000000000000001"></path><path d="M195.48,414.88H138.21l-.58-.59a29.2,29.2,0,0,1,0-41.31l.58-.58h57.27l-3.41,3.41a25.22,25.22,0,0,0,0,35.65Z" style="fill:#4875E5"></path><g style="opacity:0.30000000000000004"><path d="M195.48,414.88H138.21l-.58-.59a29.2,29.2,0,0,1,0-41.31l.58-.58h57.27l-3.41,3.41a25.22,25.22,0,0,0,0,35.65Z"></path></g><path d="M346.37,414.88H191.69l-.17-.17a30.06,30.06,0,0,1-9-20A29.08,29.08,0,0,1,191.1,373l.59-.58H346.37a2,2,0,0,1,2,2h0a2,2,0,0,1-2,2h-153a25.23,25.23,0,0,0,0,34.48h153a2,2,0,0,1,2,2h0A2,2,0,0,1,346.37,414.88Z" style="fill:#4875E5"></path><path d="M330.2,389h-8.75a1.5,1.5,0,0,1-1.5-1.5h0a1.5,1.5,0,0,1,1.5-1.5h8.75a1.5,1.5,0,0,1,1.5,1.5h0A1.5,1.5,0,0,1,330.2,389Z" style="fill:#fff"></path><path d="M310,389H228.7a1.5,1.5,0,0,1-1.5-1.5h0a1.5,1.5,0,0,1,1.5-1.5H310a1.5,1.5,0,0,1,1.5,1.5h0A1.5,1.5,0,0,1,310,389Z" style="fill:#fff"></path><path d="M217.7,389h-18a1.5,1.5,0,0,1-1.5-1.5h0a1.5,1.5,0,0,1,1.5-1.5h18a1.5,1.5,0,0,1,1.5,1.5h0A1.5,1.5,0,0,1,217.7,389Z" style="fill:#fff"></path><path d="M330.2,401.71h-77a1.5,1.5,0,0,1-1.5-1.5h0a1.5,1.5,0,0,1,1.5-1.5h77a1.5,1.5,0,0,1,1.5,1.5h0A1.5,1.5,0,0,1,330.2,401.71Z" style="fill:#fff"></path><path d="M242,401.71H199.7a1.5,1.5,0,0,1-1.5-1.5h0a1.5,1.5,0,0,1,1.5-1.5H242a1.5,1.5,0,0,1,1.5,1.5h0A1.5,1.5,0,0,1,242,401.71Z" style="fill:#fff"></path><path d="M339.67,298.17h-164v34.2H339.73A134.07,134.07,0,0,1,339.67,298.17Z" style="fill:#4875E5"></path><path d="M339.67,298.17h-164v34.2H339.73A134.07,134.07,0,0,1,339.67,298.17Z" style="fill:#fff;opacity:0.8"></path><path d="M205.55,334.17H154l-.53-.53a26.28,26.28,0,0,1,0-37.17l.53-.53h51.54L202.48,299a22.71,22.71,0,0,0,0,32.09Z" style="fill:#4875E5"></path><g style="opacity:0.2"><path d="M205.55,334.17H154l-.53-.53a26.28,26.28,0,0,1,0-37.17l.53-.53h51.54L202.48,299a22.71,22.71,0,0,0,0,32.09Z" style="fill:#fff"></path></g><path d="M341.35,334.17H202.14L202,334a27,27,0,0,1-8.06-18,26.1,26.1,0,0,1,7.68-19.53l.53-.53H341.35a1.8,1.8,0,0,1,1.8,1.8h0a1.8,1.8,0,0,1-1.8,1.8H203.64a22.7,22.7,0,0,0,0,31H341.35a1.8,1.8,0,0,1,1.8,1.8h0A1.8,1.8,0,0,1,341.35,334.17Z" style="fill:#4875E5"></path><g style="opacity:0.4"><path d="M341.35,334.17H202.14L202,334a27,27,0,0,1-8.06-18,26.1,26.1,0,0,1,7.68-19.53l.53-.53H341.35a1.8,1.8,0,0,1,1.8,1.8h0a1.8,1.8,0,0,1-1.8,1.8H203.64a22.7,22.7,0,0,0,0,31H341.35a1.8,1.8,0,0,1,1.8,1.8h0A1.8,1.8,0,0,1,341.35,334.17Z" style="fill:#fff"></path></g><path d="M326.8,310.92h-7.88a1.35,1.35,0,0,1-1.35-1.35h0a1.35,1.35,0,0,1,1.35-1.35h7.88a1.35,1.35,0,0,1,1.35,1.35h0A1.35,1.35,0,0,1,326.8,310.92Z" style="fill:#fff"></path><path d="M308.57,310.92H235.45a1.34,1.34,0,0,1-1.35-1.35h0a1.34,1.34,0,0,1,1.35-1.35h73.12a1.34,1.34,0,0,1,1.35,1.35h0A1.34,1.34,0,0,1,308.57,310.92Z" style="fill:#fff"></path><path d="M225.55,310.92h-16.2a1.34,1.34,0,0,1-1.35-1.35h0a1.34,1.34,0,0,1,1.35-1.35h16.2a1.34,1.34,0,0,1,1.35,1.35h0A1.34,1.34,0,0,1,225.55,310.92Z" style="fill:#fff"></path><path d="M326.8,322.32H257.5a1.34,1.34,0,0,1-1.35-1.35h0a1.34,1.34,0,0,1,1.35-1.35h69.3a1.35,1.35,0,0,1,1.35,1.35h0A1.35,1.35,0,0,1,326.8,322.32Z" style="fill:#fff"></path><path d="M247.37,322.32h-38A1.34,1.34,0,0,1,208,321h0a1.34,1.34,0,0,1,1.35-1.35h38a1.34,1.34,0,0,1,1.35,1.35h0A1.34,1.34,0,0,1,247.37,322.32Z" style="fill:#fff"></path><path d="M345.44,336.4h-164v34.2H345.5A134.07,134.07,0,0,1,345.44,336.4Z" style="fill:#4875E5"></path><path d="M345.44,336.4h-164v34.2H345.5A134.07,134.07,0,0,1,345.44,336.4Z" style="fill:#fff;opacity:0.7000000000000001"></path><path d="M211.33,372.4H159.78l-.52-.53a26.28,26.28,0,0,1,0-37.17l.52-.53h51.55l-3.07,3.07a22.68,22.68,0,0,0,0,32.09Z" style="fill:#4875E5"></path><path d="M347.13,372.4H207.91l-.15-.15a27,27,0,0,1-8.06-18,26.16,26.16,0,0,1,7.68-19.53l.53-.53H347.13a1.81,1.81,0,0,1,1.8,1.8h0a1.81,1.81,0,0,1-1.8,1.8H209.42a22.67,22.67,0,0,0,0,31H347.13a1.8,1.8,0,0,1,1.8,1.8h0A1.81,1.81,0,0,1,347.13,372.4Z" style="fill:#4875E5"></path><g style="opacity:0.30000000000000004"><path d="M347.13,372.4H207.91l-.15-.15a27,27,0,0,1-8.06-18,26.16,26.16,0,0,1,7.68-19.53l.53-.53H347.13a1.81,1.81,0,0,1,1.8,1.8h0a1.81,1.81,0,0,1-1.8,1.8H209.42a22.67,22.67,0,0,0,0,31H347.13a1.8,1.8,0,0,1,1.8,1.8h0A1.81,1.81,0,0,1,347.13,372.4Z" style="fill:#fff"></path></g><path d="M215.12,357.85H223a1.35,1.35,0,0,1,1.35,1.35h0a1.36,1.36,0,0,1-1.35,1.35h-7.88a1.36,1.36,0,0,1-1.35-1.35h0A1.35,1.35,0,0,1,215.12,357.85Z" style="fill:#fff"></path><path d="M233.35,357.85h73.12a1.34,1.34,0,0,1,1.35,1.35h0a1.35,1.35,0,0,1-1.35,1.35H233.35A1.35,1.35,0,0,1,232,359.2h0A1.34,1.34,0,0,1,233.35,357.85Z" style="fill:#fff"></path><path d="M316.37,357.85h16.2a1.34,1.34,0,0,1,1.35,1.35h0a1.35,1.35,0,0,1-1.35,1.35h-16.2A1.36,1.36,0,0,1,315,359.2h0A1.35,1.35,0,0,1,316.37,357.85Z" style="fill:#fff"></path><path d="M215.12,346.45h69.3a1.34,1.34,0,0,1,1.35,1.35h0a1.35,1.35,0,0,1-1.35,1.35h-69.3a1.36,1.36,0,0,1-1.35-1.35h0A1.35,1.35,0,0,1,215.12,346.45Z" style="fill:#fff"></path><path d="M294.55,346.45h38a1.34,1.34,0,0,1,1.35,1.35h0a1.35,1.35,0,0,1-1.35,1.35h-38a1.35,1.35,0,0,1-1.35-1.35h0A1.34,1.34,0,0,1,294.55,346.45Z" style="fill:#fff"></path></g></svg>
